PathFileType	4	(X/Y/Z)	 0.11m3min.trc
DataRate	CameraRate	NumFrames	NumMarkers	Units	OrigDataRate	OrigDataStartFrame	OrigNumFrames
200	200	10	35	m	200	376	1000
Frame#	Time	C7			LSH			RSH			MAN			RASI			LASI			HIPR			HIPL			RPSI			LPSI			COX			RTHI1			RTHI2			RTHI3			RTHI4			RSHA1			RSHA2			RSHA3			RSHA4			RHEEL			RMET5			RMET1			RTOE			LTHI1			LTHI2			LTHI3			LTHI4			LSHA1			LSHA2			LSHA3			LSHA4			LHEEL			LMET5			LMET1			LTOE			
		X1	Y1	Z1	X2	Y2	Z2	X3	Y3	Z3	X4	Y4	Z4	X5	Y5	Z5	X6	Y6	Z6	X7	Y7	Z7	X8	Y8	Z8	X9	Y9	Z9	X10	Y10	Z10	X11	Y11	Z11	X12	Y12	Z12	X13	Y13	Z13	X14	Y14	Z14	X15	Y15	Z15	X16	Y16	Z16	X17	Y17	Z17	X18	Y18	Z18	X19	Y19	Z19	X20	Y20	Z20	X21	Y21	Z21	X22	Y22	Z22	X23	Y23	Z23	X24	Y24	Z24	X25	Y25	Z25	X26	Y26	Z26	X27	Y27	Z27	X28	Y28	Z28	X29	Y29	Z29	X30	Y30	Z30	X31	Y31	Z31	X32	Y32	Z32	X33	Y33	Z33	X34	Y34	Z34	X35	Y35	Z35	
376	1.8800	-0.307635	1.620456	-0.519270	-0.259683	1.605879	-0.752246	-0.228384	1.601612	-0.312035	-0.157264	1.576802	-0.534931	-0.161106	1.098789	-0.415968	-0.170038	1.100795	-0.644526	-0.219257	1.179178	-0.364089	-0.222144	1.172876	-0.688526	-0.338733	1.158655	-0.468635	-0.339457	1.161767	-0.576474	-0.348501	1.164115	-0.520485	-0.248483	0.876266	-0.327997	-0.231764	0.820903	-0.315662	-0.169163	0.838388	-0.310367	-0.179080	0.897819	-0.323111	-0.286204	0.421207	-0.300908	-0.304109	0.381917	-0.305066	-0.246558	0.363509	-0.309703	-0.233480	0.401496	-0.309434	-0.407993	0.091544	-0.379998	-0.231165	0.027654	-0.307590	-0.190920	0.040388	-0.396641	-0.161108	0.028322	-0.395409	-0.226493	0.856635	-0.733334	-0.207285	0.798708	-0.741159	-0.144609	0.812583	-0.734811	-0.154935	0.871520	-0.726283	-0.311573	0.376233	-0.738800	-0.326063	0.338667	-0.733445	-0.266269	0.321272	-0.739112	-0.259194	0.364252	-0.743972	-0.413390	0.082220	-0.665621	-0.247972	0.024758	-0.760181	-0.190376	0.037732	-0.676477	-0.158867	0.026875	-0.682358	
377	1.8850	-0.307072	1.614780	-0.519074	-0.258957	1.599260	-0.752792	-0.227513	1.594729	-0.311524	-0.156600	1.570359	-0.534954	-0.161915	1.092533	-0.416032	-0.170755	1.094831	-0.644538	-0.219791	1.172168	-0.363821	-0.223144	1.165750	-0.688755	-0.339675	1.152292	-0.468678	-0.340419	1.155393	-0.576370	-0.349371	1.157711	-0.520459	-0.248228	0.870265	-0.327531	-0.231124	0.815040	-0.315267	-0.168674	0.833011	-0.309679	-0.178998	0.892388	-0.322458	-0.283802	0.417011	-0.300714	-0.302139	0.377898	-0.305113	-0.244787	0.358868	-0.309992	-0.231312	0.396798	-0.309456	-0.409339	0.087499	-0.380672	-0.231209	0.027488	-0.307284	-0.190814	0.040358	-0.396706	-0.160768	0.028281	-0.395373	-0.224849	0.850991	-0.733933	-0.204973	0.793299	-0.741864	-0.142479	0.807843	-0.735174	-0.153495	0.866639	-0.726472	-0.309579	0.372439	-0.738412	-0.324422	0.335083	-0.732898	-0.264820	0.317054	-0.738744	-0.257332	0.359942	-0.743827	-0.414142	0.078457	-0.663748	-0.248416	0.024742	-0.760215	-0.190310	0.037685	-0.676328	-0.158605	0.026823	-0.682469	
378	1.8900	-0.306476	1.609320	-0.518897	-0.258298	1.592689	-0.753353	-0.226690	1.587912	-0.311006	-0.155909	1.563952	-0.534982	-0.162773	1.086427	-0.416022	-0.171454	1.088977	-0.644518	-0.220479	1.165204	-0.363561	-0.224287	1.158634	-0.688946	-0.340663	1.145997	-0.468729	-0.341421	1.149081	-0.576201	-0.350247	1.151414	-0.520400	-0.248068	0.864498	-0.327120	-0.230605	0.809388	-0.314930	-0.168300	0.827813	-0.309003	-0.179006	0.887164	-0.321798	-0.281381	0.412852	-0.300572	-0.300062	0.373867	-0.305217	-0.242878	0.354374	-0.310362	-0.229086	0.392245	-0.309568	-0.410484	0.083784	-0.381379	-0.231271	0.027374	-0.307053	-0.190696	0.040340	-0.396740	-0.160447	0.028256	-0.395285	-0.223326	0.845546	-0.734586	-0.202802	0.788096	-0.742654	-0.140489	0.803302	-0.735736	-0.152168	0.861946	-0.726853	-0.307006	0.368664	-0.738116	-0.322141	0.331490	-0.732503	-0.262697	0.312947	-0.738372	-0.254856	0.355760	-0.743639	-0.414480	0.075050	-0.661832	-0.248648	0.024735	-0.760280	-0.189982	0.037677	-0.676343	-0.158061	0.026797	-0.682756	
379	1.8950	-0.305879	1.604066	-0.518767	-0.257710	1.586231	-0.753907	-0.225931	1.581224	-0.310505	-0.155193	1.557603	-0.535019	-0.163669	1.080527	-0.415930	-0.172130	1.083262	-0.644477	-0.221351	1.158336	-0.363320	-0.225568	1.151601	-0.689101	-0.341674	1.139830	-0.468811	-0.342439	1.142910	-0.575975	-0.351108	1.145314	-0.520318	-0.247949	0.858969	-0.326790	-0.230143	0.803973	-0.314630	-0.167988	0.822815	-0.308339	-0.179061	0.882155	-0.321143	-0.279053	0.408773	-0.300472	-0.297996	0.369897	-0.305343	-0.240948	0.350050	-0.310759	-0.226907	0.387865	-0.309730	-0.411462	0.080358	-0.382217	-0.231398	0.027318	-0.306915	-0.190625	0.040329	-0.396775	-0.160204	0.028237	-0.395168	-0.221978	0.840315	-0.735260	-0.200846	0.783103	-0.743494	-0.138696	0.798948	-0.736527	-0.150996	0.857453	-0.727465	-0.303961	0.365036	-0.737950	-0.319390	0.328016	-0.732250	-0.260081	0.308994	-0.737996	-0.251901	0.351740	-0.743414	-0.414552	0.072112	-0.659942	-0.248768	0.024741	-0.760318	-0.189526	0.037679	-0.676422	-0.157410	0.026793	-0.683154	
380	1.9000	-0.305329	1.598998	-0.518694	-0.257199	1.579958	-0.754423	-0.225259	1.574737	-0.310050	-0.154466	1.551346	-0.535066	-0.164594	1.074881	-0.415763	-0.172786	1.077714	-0.644427	-0.222423	1.151620	-0.363114	-0.226980	1.144732	-0.689225	-0.342691	1.133878	-0.468935	-0.343445	1.136949	-0.575714	-0.351930	1.139501	-0.520234	-0.247818	0.853673	-0.326582	-0.229677	0.798789	-0.314442	-0.167681	0.818063	-0.307732	-0.179113	0.877372	-0.320522	-0.276853	0.404845	-0.300392	-0.295995	0.366060	-0.305459	-0.239062	0.345929	-0.311145	-0.224817	0.383680	-0.309914	-0.412328	0.077233	-0.383097	-0.231599	0.027310	-0.306861	-0.190621	0.040322	-0.396818	-0.160057	0.028221	-0.395038	-0.220829	0.835286	-0.735909	-0.199138	0.778300	-0.744324	-0.137129	0.794774	-0.737555	-0.149998	0.853146	-0.728331	-0.300621	0.361666	-0.737888	-0.316364	0.324794	-0.732108	-0.257188	0.305279	-0.737615	-0.248651	0.347956	-0.743156	-0.414505	0.069700	-0.658173	-0.248850	0.024760	-0.760292	-0.189059	0.037686	-0.676506	-0.156786	0.026804	-0.683571	
381	1.9050	-0.304872	1.594098	-0.518678	-0.256776	1.573944	-0.754870	-0.224702	1.568510	-0.309664	-0.153755	1.545234	-0.535120	-0.165532	1.069524	-0.415529	-0.173420	1.072360	-0.644378	-0.223700	1.145113	-0.362981	-0.228464	1.138110	-0.689347	-0.343696	1.128214	-0.469113	-0.344410	1.131268	-0.575454	-0.352720	1.134045	-0.520175	-0.247633	0.848622	-0.326488	-0.229142	0.793850	-0.314315	-0.167314	0.813548	-0.307204	-0.179116	0.872822	-0.319976	-0.274742	0.401144	-0.300296	-0.294051	0.362429	-0.305553	-0.237223	0.342064	-0.311476	-0.222801	0.379731	-0.310059	-0.413110	0.074398	-0.383964	-0.231854	0.027331	-0.306860	-0.190672	0.040318	-0.396865	-0.159986	0.028207	-0.394904	-0.219864	0.830437	-0.736490	-0.197663	0.773671	-0.745099	-0.135772	0.790764	-0.738793	-0.149163	0.849014	-0.729430	-0.297140	0.358655	-0.737902	-0.313230	0.321929	-0.732033	-0.254194	0.301885	-0.737249	-0.245270	0.344490	-0.742903	-0.414425	0.067809	-0.656597	-0.248932	0.024787	-0.760200	-0.188661	0.037687	-0.676549	-0.156271	0.026814	-0.683925	
382	1.9100	-0.304544	1.589366	-0.518705	-0.256465	1.568258	-0.755219	-0.224299	1.562600	-0.309362	-0.153094	1.539320	-0.535176	-0.166473	1.064474	-0.415252	-0.174034	1.067228	-0.644344	-0.225231	1.138866	-0.362850	-0.229991	1.131790	-0.689475	-0.344676	1.122903	-0.469354	-0.345316	1.125911	-0.575238	-0.353482	1.128971	-0.520175	-0.247365	0.843822	-0.326462	-0.228500	0.789149	-0.314250	-0.166846	0.809291	-0.306796	-0.179043	0.868531	-0.319545	-0.272653	0.397749	-0.300184	-0.292118	0.359086	-0.305625	-0.235399	0.338495	-0.311747	-0.220800	0.376060	-0.310180	-0.413786	0.071846	-0.384825	-0.232132	0.027362	-0.306884	-0.190757	0.040317	-0.396910	-0.159973	0.028191	-0.394766	-0.219038	0.825752	-0.736958	-0.196369	0.769197	-0.745766	-0.134586	0.786907	-0.740159	-0.148446	0.845049	-0.730705	-0.293607	0.356017	-0.737891	-0.310086	0.319498	-0.732002	-0.251212	0.298868	-0.736922	-0.241864	0.341396	-0.742696	-0.414322	0.066376	-0.655235	-0.249017	0.024816	-0.760068	-0.188352	0.037680	-0.676552	-0.155889	0.026822	-0.684205	
383	1.9150	-0.304356	1.584815	-0.518751	-0.256278	1.562959	-0.755458	-0.224078	1.557052	-0.309144	-0.152527	1.533679	-0.535232	-0.167408	1.059750	-0.414953	-0.174623	1.062351	-0.644331	-0.226993	1.132956	-0.362728	-0.231524	1.125813	-0.689605	-0.345627	1.117978	-0.469650	-0.346154	1.120915	-0.575106	-0.354214	1.124274	-0.520251	-0.247001	0.839320	-0.326454	-0.227747	0.784734	-0.314241	-0.166259	0.805321	-0.306532	-0.178876	0.864514	-0.319247	-0.270515	0.394696	-0.300068	-0.290144	0.356106	-0.305674	-0.233545	0.335252	-0.311958	-0.218753	0.372717	-0.310273	-0.414365	0.069670	-0.385595	-0.232410	0.027392	-0.306913	-0.190855	0.040317	-0.396949	-0.159994	0.028178	-0.394626	-0.218276	0.821236	-0.737309	-0.195172	0.764878	-0.746282	-0.133495	0.783200	-0.741527	-0.147790	0.841243	-0.732028	-0.290084	0.353791	-0.737891	-0.306974	0.317515	-0.732019	-0.248273	0.296250	-0.736673	-0.238486	0.338703	-0.742560	-0.414213	0.065401	-0.654161	-0.249097	0.024838	-0.759935	-0.188127	0.037664	-0.676529	-0.155623	0.026824	-0.684408	
384	1.9200	-0.304302	1.580481	-0.518797	-0.256227	1.558097	-0.755591	-0.224048	1.551900	-0.308998	-0.152097	1.528396	-0.535280	-0.168322	1.055361	-0.414663	-0.175187	1.057761	-0.644349	-0.228940	1.127468	-0.362626	-0.233021	1.120208	-0.689737	-0.346547	1.113453	-0.469983	-0.346917	1.116291	-0.575084	-0.354926	1.119943	-0.520411	-0.246544	0.835125	-0.326421	-0.226881	0.780636	-0.314241	-0.165552	0.801677	-0.306408	-0.178614	0.860809	-0.319071	-0.268269	0.392028	-0.299949	-0.288084	0.353524	-0.305707	-0.231617	0.332378	-0.312116	-0.216618	0.369731	-0.310329	-0.414839	0.067935	-0.386215	-0.232667	0.027417	-0.306939	-0.190945	0.040312	-0.396980	-0.160024	0.028170	-0.394484	-0.217501	0.816907	-0.737549	-0.193978	0.760737	-0.746654	-0.132421	0.779661	-0.742755	-0.147130	0.837605	-0.733244	-0.286591	0.351978	-0.737937	-0.303889	0.315952	-0.732105	-0.245378	0.294046	-0.736520	-0.235144	0.336421	-0.742494	-0.414089	0.064876	-0.653414	-0.249157	0.024851	-0.759832	-0.187964	0.037648	-0.676510	-0.155437	0.026822	-0.684547	
385	1.9250	-0.304364	1.576416	-0.518834	-0.256304	1.553709	-0.755636	-0.224200	1.547161	-0.308908	-0.151836	1.523559	-0.535315	-0.169198	1.051328	-0.414403	-0.175712	1.053493	-0.644396	-0.231010	1.122458	-0.362548	-0.234428	1.115003	-0.689878	-0.347432	1.109311	-0.470338	-0.347602	1.112043	-0.575177	-0.355632	1.115952	-0.520656	-0.245987	0.831244	-0.326308	-0.225898	0.776871	-0.314234	-0.164717	0.798381	-0.306384	-0.178259	0.857441	-0.318983	-0.265884	0.389771	-0.299812	-0.285908	0.351356	-0.305708	-0.229580	0.329906	-0.312222	-0.214361	0.367142	-0.310347	-0.415165	0.066658	-0.386744	-0.232880	0.027433	-0.306958	-0.190998	0.040305	-0.397002	-0.160038	0.028165	-0.394342	-0.216641	0.812808	-0.737711	-0.192690	0.756833	-0.746912	-0.131270	0.776336	-0.743727	-0.146400	0.834183	-0.734230	-0.283120	0.350560	-0.738054	-0.300824	0.314777	-0.732274	-0.242499	0.292247	-0.736482	-0.231825	0.334537	-0.742517	-0.413926	0.064787	-0.652984	-0.249187	0.024853	-0.759769	-0.187838	0.037628	-0.676501	-0.155297	0.026816	-0.684637	
